<svg width="32" height="32" viewBox="0 0 32 32" fill="none" xmlns="http://www.w3.org/2000/svg">
<g clip-path="url(#clip0_57_360)">
<path d="M16 0C12.8355 0 9.74207 0.938384 7.11088 2.69649C4.4797 4.45459 2.42894 6.95345 1.21793 9.87707C0.00693261 12.8007 -0.309921 16.0177 0.307443 19.1214C0.924806 22.2251 2.44866 25.0761 4.6863 27.3137C6.92394 29.5514 9.77487 31.0752 12.8786 31.6926C15.9823 32.3099 19.1993 31.9931 22.1229 30.7821C25.0466 29.5711 27.5454 27.5203 29.3035 24.8891C31.0616 22.2579 32 19.1645 32 16C31.9985 11.757 30.3123 7.68822 27.312 4.68797C24.3118 1.68772 20.243 0.00151943 16 0V0ZM12.1992 9.71122C12.3655 10.0896 12.5031 10.4163 12.5203 10.4565C12.9969 11.5159 13.2933 12.6474 13.3974 13.8044C13.4147 14.6304 13.1852 15.4428 12.7381 16.1376C12.526 16.4701 12.2967 16.7911 12.2967 16.7911H7.67038C7.67038 16.7911 10.9782 11.6259 12.1992 9.71122ZM26.4106 18.918L26.038 19.0957C25.952 19.1537 25.8597 19.2018 25.7628 19.239C25.0352 19.5465 24.4303 20.0869 24.043 20.7754C23.6014 21.5667 23.0952 22.3203 22.5296 23.0283C22.281 23.3747 21.9553 23.6585 21.5783 23.8575C21.2012 24.0565 20.7831 24.1651 20.3569 24.1748H11.5113C8.92011 24.1748 6.72448 21.6869 6.66142 19.0957V18.6256H11.6088V19.0269C11.6172 19.151 11.6383 19.2739 11.6718 19.3938C11.7622 19.7551 11.9762 20.0733 12.2768 20.2932C12.5773 20.5131 12.9454 20.6208 13.3171 20.5976H15.4783V18.6657H13.1852C13.1509 18.5912 13.1852 18.4708 13.3056 18.3046C13.684 17.7313 14.0394 17.0949 14.3891 16.4758C15.2376 14.9796 15.1458 13.4203 14.7159 11.8323C14.302 10.399 13.725 9.01792 12.9961 7.71623C12.9961 7.71623 14.2458 7.98567 15.4898 8.3239V7.36654C15.5085 7.12468 15.6178 6.89879 15.7958 6.73401C15.9738 6.56923 16.2075 6.47769 16.45 6.47769C16.6926 6.47769 16.9262 6.56923 17.1043 6.73401C17.2823 6.89879 17.3916 7.12468 17.4103 7.36654V8.96023L17.6568 9.08062C18.5314 9.74858 19.3379 10.5013 20.0645 11.3278C20.3822 11.7342 20.6696 12.1634 20.9244 12.612C21.2847 13.1885 21.4662 13.8588 21.4458 14.5383C21.4254 15.2179 21.204 15.8761 20.8098 16.43C20.2932 17.1953 19.6954 17.9026 19.0269 18.5396C18.9889 18.5787 18.9466 18.6133 18.9008 18.6428H17.4103V20.5403H19.0957C19.6203 20.4975 20.1114 20.2652 20.4773 19.8868C20.6951 19.6517 21.234 18.9466 21.234 18.9466L26.3934 17.5421L26.4106 18.918Z" fill="white"/>
</g>
<defs>
<clipPath id="clip0_57_360">
<rect width="32" height="32" fill="white"/>
</clipPath>
</defs>
</svg>
