<svg width="32" height="32" viewBox="0 0 32 32" fill="none" xmlns="http://www.w3.org/2000/svg">
<path d="M16.0001 0.639893C7.51694 0.639893 0.640137 7.51669 0.640137 15.9999C0.640137 24.4831 7.51694 31.3599 16.0001 31.3599C24.4833 31.3599 31.3601 24.4831 31.3601 15.9999C31.3601 7.51669 24.4833 0.639893 16.0001 0.639893ZM22.2481 13.2223C22.2545 13.3535 22.2561 13.4847 22.2561 13.6127C22.2561 17.6127 19.2145 22.2223 13.6497 22.2223C12.0054 22.225 10.3953 21.7528 9.01294 20.8623C9.24814 20.8911 9.48974 20.9023 9.73454 20.9023C11.1521 20.9023 12.4561 20.4207 13.4913 19.6079C12.8605 19.5955 12.2492 19.3866 11.7427 19.0103C11.2362 18.634 10.8597 18.1091 10.6657 17.5087C11.1188 17.5948 11.5855 17.5768 12.0305 17.4559C11.3458 17.3174 10.7301 16.9464 10.2877 16.4058C9.84529 15.8651 9.60351 15.1881 9.60334 14.4895V14.4527C10.0113 14.6783 10.4785 14.8159 10.9745 14.8319C10.3326 14.4046 9.87819 13.7482 9.70421 12.9969C9.53022 12.2456 9.64982 11.4563 10.0385 10.7903C10.7985 11.7247 11.7462 12.4891 12.8202 13.034C13.8943 13.5789 15.0709 13.8922 16.2737 13.9535C16.1208 13.3044 16.1866 12.6229 16.461 12.0151C16.7353 11.4073 17.2027 10.9071 17.7907 10.5923C18.3786 10.2776 19.054 10.1659 19.712 10.2746C20.3699 10.3833 20.9735 10.7063 21.4289 11.1935C22.106 11.0595 22.7553 10.8112 23.3489 10.4591C23.1233 11.1601 22.6508 11.7554 22.0193 12.1343C22.6191 12.0621 23.2047 11.9008 23.7569 11.6559C23.3513 12.2637 22.8404 12.7942 22.2481 13.2223V13.2223Z" fill="white"/>
</svg>
